<?xml version="1.0" encoding="UTF-8" standalone="no"?>
<!-- Created with Inkscape (http://www.inkscape.org/) -->

<svg
   xmlns:dc="http://purl.org/dc/elements/1.1/"
   xmlns:cc="http://creativecommons.org/ns#"
   xmlns:rdf="http://www.w3.org/1999/02/22-rdf-syntax-ns#"
   xmlns:svg="http://www.w3.org/2000/svg"
   xmlns="http://www.w3.org/2000/svg"
   xmlns:sodipodi="http://sodipodi.sourceforge.net/DTD/sodipodi-0.dtd"
   xmlns:inkscape="http://www.inkscape.org/namespaces/inkscape"
   width="744.09448819"
   height="1052.3622047"
   id="svg3061"
   version="1.1"
   inkscape:version="0.48.2 r9819"
   inkscape:export-filename="C:\Users\SUS\Documents\GitHub\ShareFest\public\img\symbol.png"
   inkscape:export-xdpi="90"
   inkscape:export-ydpi="90"
   sodipodi:docname="New document 3">
  <defs
     id="defs3063" />
  <sodipodi:namedview
     id="base"
     pagecolor="#ffffff"
     bordercolor="#666666"
     borderopacity="1.0"
     inkscape:pageopacity="0.0"
     inkscape:pageshadow="2"
     inkscape:zoom="1.2941838"
     inkscape:cx="374.04449"
     inkscape:cy="507.14281"
     inkscape:document-units="px"
     inkscape:current-layer="layer1"
     showgrid="false"
     inkscape:window-width="1600"
     inkscape:window-height="825"
     inkscape:window-x="-9"
     inkscape:window-y="-9"
     inkscape:window-maximized="1" />
  <metadata
     id="metadata3066">
    <rdf:RDF>
      <cc:Work
         rdf:about="">
        <dc:format>image/svg+xml</dc:format>
        <dc:type
           rdf:resource="http://purl.org/dc/dcmitype/StillImage" />
        <dc:title></dc:title>
      </cc:Work>
    </rdf:RDF>
  </metadata>
  <g
     inkscape:label="Layer 1"
     inkscape:groupmode="layer"
     id="layer1">
    <path
       sodipodi:type="star"
       style="fill:#e34c26;fill-opacity:1;stroke:none"
       id="path3867"
       sodipodi:sides="5"
       sodipodi:cx="-147.48227"
       sodipodi:cy="247.2706"
       sodipodi:r1="31.205648"
       sodipodi:r2="7.2877192"
       sodipodi:arg1="1.2952176"
       sodipodi:arg2="1.9118327"
       inkscape:flatsided="false"
       inkscape:rounded="0.59174971"
       inkscape:randomized="0"
       d="m -138.99109,277.29879 c -14.53315,4.29396 3.29251,-17.92484 -10.92866,-23.16018 -14.28885,-5.26026 -14.88152,23.04121 -23.49711,10.4868 -8.57478,-12.49494 18.06498,-2.40772 18.6495,-17.55066 0.58731,-15.21501 -26.51213,-7.03304 -17.23455,-19.10648 9.23364,-12.01625 7.87227,16.43679 22.45469,12.31328 14.65183,-4.14314 -1.50388,-27.38787 12.84557,-22.29526 14.28149,5.06849 -13.19965,12.56621 -4.77174,25.16069 8.46802,12.65441 25.58268,-9.8936 25.17355,5.32725 -0.4072,15.14875 -16.0301,-8.67044 -25.40379,3.23688 -9.4183,11.964 17.31485,21.27329 2.71254,25.58768 z"
       transform="matrix(7.952999,0.00686197,-0.00703173,8.1498559,1534.6187,-1471.3378)"
       inkscape:transform-center-y="-14.694086"
       inkscape:transform-center-x="-14.868656" />
    <path
       inkscape:transform-center-x="-14.868656"
       inkscape:transform-center-y="-14.694086"
       transform="matrix(7.952999,0.00686197,-0.00703173,8.1498559,1534.6187,-1471.3378)"
       d="m -138.99109,277.29879 c -14.53315,4.29396 3.29251,-17.92484 -10.92866,-23.16018 -14.28885,-5.26026 -14.88152,23.04121 -23.49711,10.4868 -8.57478,-12.49494 18.06498,-2.40772 18.6495,-17.55066 0.58731,-15.21501 -26.51213,-7.03304 -17.23455,-19.10648 9.23364,-12.01625 7.87227,16.43679 22.45469,12.31328 14.65183,-4.14314 -1.50388,-27.38787 12.84557,-22.29526 14.28149,5.06849 -13.19965,12.56621 -4.77174,25.16069 8.46802,12.65441 25.58268,-9.8936 25.17355,5.32725 -0.4072,15.14875 -16.0301,-8.67044 -25.40379,3.23688 -9.4183,11.964 17.31485,21.27329 2.71254,25.58768 z"
       inkscape:randomized="0"
       inkscape:rounded="0.59174971"
       inkscape:flatsided="false"
       sodipodi:arg2="1.9118327"
       sodipodi:arg1="1.2952176"
       sodipodi:r2="7.2877192"
       sodipodi:r1="31.205648"
       sodipodi:cy="247.2706"
       sodipodi:cx="-147.48227"
       sodipodi:sides="5"
       id="path3076"
       style="fill:#e34c26;fill-opacity:1;stroke:none"
       sodipodi:type="star" />
  </g>
</svg>
